HIERARCHY
ROOT Hips
{
	OFFSET 0.000000 93.594000 0.000000
	CHANNELS 6 Xposition Yposition Zposition Yrotation Xrotation Zrotation
	JOINT RightUpLeg
	{
		OFFSET -9.500000 -1.594000 0.000000
		CHANNELS 3 Yrotation Xrotation Zrotation
		JOINT RightLeg
		{
			OFFSET 0.000000 -42.000000 0.000000
			CHANNELS 3 Yrotation Xrotation Zrotation
			JOINT RightFoot
			{
				OFFSET 0.000000 -42.000000 0.000000
				CHANNELS 3 Yrotation Xrotation Zrotation
				End Site
				{
					OFFSET 0.000000 -8.000000 17.500000
				}
			}
		}
	}
	JOINT LeftUpLeg
	{
		OFFSET 9.500000 -1.594000 0.000000
		CHANNELS 3 Yrotation Xrotation Zrotation
		JOINT LeftLeg
		{
			OFFSET 0.000000 -42.000000 0.000000
			CHANNELS 3 Yrotation Xrotation Zrotation
			JOINT LeftFoot
			{
				OFFSET 0.000000 -42.000000 0.000000
				CHANNELS 3 Yrotation Xrotation Zrotation
				End Site
				{
					OFFSET 0.000000 -8.000000 17.500000
				}
			}
		}
	}
	JOINT Spine
	{
		OFFSET 0.000000 14.348000 0.000000
		CHANNELS 3 Yrotation Xrotation Zrotation
		JOINT Spine1
		{
			OFFSET 0.000000 9.746000 0.000000
			CHANNELS 3 Yrotation Xrotation Zrotation
			JOINT Spine2
			{
				OFFSET 0.000000 10.149000 0.000000
				CHANNELS 3 Yrotation Xrotation Zrotation
				JOINT Spine3
				{
					OFFSET 0.000000 9.746000 0.000000
					CHANNELS 3 Yrotation Xrotation Zrotation
					JOINT Neck
					{
						OFFSET 0.000000 10.417000 0.000000
						CHANNELS 3 Yrotation Xrotation Zrotation
						JOINT Head
						{
							OFFSET 0.000000 9.000000 0.000000
							CHANNELS 3 Yrotation Xrotation Zrotation
							End Site
							{
								OFFSET 0.000000 16.000000 0.000000
							}
						}
					}
					JOINT RightShoulder
					{
						OFFSET -3.200000 6.945000 0.000000
						CHANNELS 3 Yrotation Xrotation Zrotation
						JOINT RightArm
						{
							OFFSET -12.800000 0.000000 0.000000
							CHANNELS 3 Yrotation Xrotation Zrotation
							JOINT RightForeArm
							{
								OFFSET -27.000000 0.000000 0.000000
								CHANNELS 3 Yrotation Xrotation Zrotation
								JOINT RightHand
								{
									OFFSET -26.000000 0.000000 0.000000
									CHANNELS 3 Yrotation Xrotation Zrotation
									End Site
									{
										OFFSET -3.479000 0.532000 0.778000
									}
								}
							}
						}
					}
					JOINT LeftShoulder
					{
						OFFSET 3.200000 6.945000 0.000000
						CHANNELS 3 Yrotation Xrotation Zrotation
						JOINT LeftArm
						{
							OFFSET 12.800000 0.000000 0.000000
							CHANNELS 3 Yrotation Xrotation Zrotation
							JOINT LeftForeArm
							{
								OFFSET 27.000000 0.000000 0.000000
								CHANNELS 3 Yrotation Xrotation Zrotation
								JOINT LeftHand
								{
									OFFSET 26.000000 0.000000 0.000000
									CHANNELS 3 Yrotation Xrotation Zrotation
									End Site
									{
										OFFSET 3.479000 0.532000 0.778000
									}
								}
							}
						}
					}
				}
			}
		}
	}
}
MOTION
Frames: 13
Frame Time: 0.041667
50.27 94.85 14.58 -153.22 10.88 -13.38 -10.19 -9.11 -14.85 0.0 32.49 0.0 15.84 -14.31 42.02 3.07 -22.12 5.55 0.0 24.91 0.0 -1.21 -12.6 4.23 2.14 -2.01 4.77 0.52 -0.52 1.2 0.84 -0.89 1.99 0.76 -0.04 0.12 0.76 -0.05 0.12 13.72 -1.38 2.0 -10.53 -11.85 -6.75 -11.75 -32.13 31.3 -9.45 25.51 -1.66 2.6 8.57 3.02 0.84 3.04 4.46 14.82 -23.85 -20.21 -16.43 45.4 -2.08 -1.6 40.75 18.73
50.24 94.85 14.62 -152.84 10.82 -13.34 -10.02 -9.35 -15.07 -0.0 31.94 -0.0 16.22 -14.54 42.3 2.86 -22.04 5.54 -0.0 24.9 -0.0 -1.37 -12.53 4.32 1.92 -1.94 4.8 0.47 -0.5 1.21 0.75 -0.86 2.0 0.76 -0.04 0.12 0.76 -0.04 0.12 13.78 -1.31 1.95 -9.62 -11.75 -7.09 -11.75 -32.61 31.34 -9.81 25.51 -2.03 2.6 8.57 2.72 0.84 3.04 4.46 16.29 -23.58 -20.64 -16.21 45.28 -2.02 -1.38 40.76 18.96
50.22 94.84 14.65 -152.46 10.75 -13.31 -9.84 -9.53 -15.26 -0.0 31.27 -0.0 16.59 -14.78 42.53 2.62 -21.95 5.54 0.0 24.9 -0.0 -1.5 -12.47 4.38 1.71 -1.86 4.82 0.42 -0.48 1.21 0.67 -0.82 2.01 0.76 -0.04 0.11 0.77 -0.04 0.11 13.86 -1.24 1.9 -9.62 -11.75 -7.09 -10.73 -33.1 31.16 -10.16 25.52 -2.37 2.63 8.56 2.41 3.29 3.51 4.13 15.38 -23.99 -20.84 -17.94 45.42 -2.32 -0.7 40.42 18.01
50.2 94.83 14.68 -152.08 10.68 -13.27 -9.63 -9.82 -15.44 0.0 30.81 0.0 16.82 -14.92 42.74 2.37 -21.85 5.53 0.0 24.9 0.0 -1.61 -12.41 4.44 1.49 -1.78 4.84 0.36 -0.46 1.22 0.58 -0.78 2.02 0.77 -0.03 0.11 0.77 -0.04 0.11 13.93 -1.16 1.84 -9.63 -11.75 -7.09 -9.68 -33.55 30.97 -10.5 25.52 -2.69 2.66 8.52 2.08 4.05 3.69 4.05 16.06 -23.86 -21.23 -19.47 45.48 -2.54 -0.04 40.11 17.05
50.19 94.83 14.71 -151.7 10.58 -13.22 -9.23 -10.22 -15.59 -0.0 30.52 0.0 16.82 -15.05 42.95 2.17 -21.74 5.51 -0.0 24.9 -0.0 -1.76 -12.37 4.51 3.98 -1.51 4.54 0.99 -0.4 1.15 1.62 -0.73 1.9 0.55 -0.08 0.12 0.55 -0.08 0.12 9.91 -1.81 2.0 -11.23 -12.02 -7.66 -11.55 -33.84 31.26 -10.84 25.5 -2.98 2.69 8.45 1.78 3.28 4.15 3.58 13.85 -24.93 -21.06 -20.96 45.48 -2.69 0.63 39.83 16.13
50.18 94.82 14.77 -151.34 10.49 -13.15 -9.01 -10.71 -15.77 0.0 30.29 0.0 17.0 -15.15 43.09 1.98 -21.64 5.46 0.0 24.9 0.0 -1.89 -12.3 4.62 4.14 -1.33 4.56 1.03 -0.36 1.15 1.69 -0.66 1.91 0.52 -0.09 0.11 0.52 -0.09 0.11 9.38 -1.98 1.93 -10.94 -12.09 -7.97 -11.35 -34.22 31.18 -11.18 25.45 -3.29 2.73 8.37 1.51 3.35 4.26 3.28 14.57 -24.77 -21.37 -22.41 45.4 -2.75 1.28 39.59 15.21
50.15 94.8 14.82 -150.98 10.4 -13.09 -8.83 -11.24 -15.93 -0.0 30.07 -0.0 17.16 -15.21 43.22 1.86 -21.55 5.4 -0.0 24.91 0.0 -2.1 -12.25 4.73 4.28 -1.14 4.59 1.07 -0.31 1.16 1.75 -0.58 1.92 0.5 -0.09 0.11 0.5 -0.1 0.11 8.97 -2.07 1.78 -9.03 -11.83 -8.85 -12.89 -34.62 31.41 -11.62 25.33 -3.62 2.87 8.32 1.23 3.45 4.43 2.96 15.26 -24.61 -21.72 -23.8 45.28 -2.73 1.88 39.4 14.28
50.13 94.79 14.88 -150.63 10.32 -13.01 -8.64 -11.8 -16.1 0.0 29.87 0.0 17.29 -15.28 43.35 1.72 -21.45 5.33 0.0 24.9 -0.0 -2.26 -12.2 4.82 4.42 -0.94 4.62 1.1 -0.26 1.16 1.81 -0.5 1.93 0.48 -0.1 0.1 0.48 -0.1 0.1 8.57 -2.2 1.63 -8.74 -11.88 -9.16 -12.66 -35.04 31.37 -11.96 25.17 -3.94 2.91 8.26 0.96 3.58 4.58 2.66 15.96 -24.38 -22.12 -25.16 45.14 -2.62 2.43 39.26 13.33
50.1 94.77 14.92 -150.28 10.21 -12.95 -8.46 -12.35 -16.25 -0.0 29.67 -0.0 17.4 -15.34 43.47 1.55 -21.33 5.27 -0.0 24.9 -0.0 -2.41 -12.15 4.9 4.58 -0.69 4.65 1.14 -0.2 1.17 1.88 -0.4 1.94 0.46 -0.11 0.08 0.46 -0.11 0.08 8.3 -2.21 1.38 -8.52 -11.96 -9.48 -12.43 -35.48 31.35 -12.19 25.01 -4.22 2.95 8.15 0.57 3.02 4.29 2.59 17.34 -23.65 -22.72 -26.48 44.98 -2.45 2.89 39.18 12.35
50.07 94.76 14.97 -149.94 10.1 -12.88 -8.3 -12.9 -16.4 0.0 29.5 0.0 17.49 -15.39 43.58 1.4 -21.19 5.2 -0.0 24.89 0.0 -2.55 -12.11 4.99 4.73 -0.46 4.7 1.18 -0.14 1.18 1.95 -0.3 1.95 0.44 -0.12 0.08 0.44 -0.12 0.08 7.9 -2.36 1.23 -8.26 -12.01 -9.83 -12.24 -35.94 31.35 -12.51 24.86 -4.48 2.98 8.04 0.14 2.5 4.04 2.5 18.68 -22.9 -23.32 -27.75 44.82 -2.22 3.28 39.16 11.31
50.05 94.74 15.01 -149.6 9.99 -12.81 -8.14 -13.47 -16.52 -0.0 29.32 0.0 17.55 -15.42 43.66 1.28 -21.08 5.13 0.0 24.9 0.0 -2.73 -12.07 5.06 4.88 -0.22 4.75 1.22 -0.08 1.19 2.02 -0.2 1.97 0.42 -0.13 0.07 0.42 -0.13 0.07 7.51 -2.53 1.05 -8.03 -12.08 -10.18 -12.03 -36.41 31.3 -12.83 24.77 -4.72 3.03 7.93 -0.36 1.97 3.77 2.41 19.99 -22.14 -23.9 -27.29 44.41 -1.72 2.86 39.42 12.54
50.03 94.72 15.03 -149.27 9.88 -12.73 -7.99 -14.06 -16.65 -0.0 29.14 -0.0 17.62 -15.43 43.73 1.19 -20.95 5.06 0.0 24.9 0.0 -2.92 -12.03 5.13 5.05 0.03 4.79 1.27 -0.02 1.2 2.1 -0.11 1.99 0.4 -0.14 0.06 0.4 -0.14 0.06 7.1 -2.72 0.88 -7.82 -12.18 -10.51 -11.79 -36.87 31.22 -13.17 24.78 -4.97 3.07 7.84 -0.89 1.42 3.49 2.32 21.31 -21.42 -24.49 -26.83 44.05 -1.27 2.44 39.67 13.81
50.01 94.71 15.08 -148.97 9.77 -12.67 -7.85 -14.66 -16.74 -0.0 28.97 -0.0 17.66 -15.41 43.77 1.09 -20.84 5.0 -0.0 24.91 -0.0 -3.09 -11.99 5.22 5.26 0.27 4.85 1.32 0.04 1.21 2.19 -0.01 2.01 0.37 -0.15 0.05 0.37 -0.15 0.05 6.67 -2.93 0.69 -7.66 -12.27 -10.83 -11.53 -37.34 31.13 -13.52 24.86 -5.24 3.15 7.78 -1.39 1.49 3.53 1.99 21.96 -21.14 -24.95 -14.58 44.01 -1.49 1.16 39.6 25.5
